<svg width="42" height="49" viewBox="0 0 42 49" fill="none" xmlns="http://www.w3.org/2000/svg">
<path d="M17.4824 24.5H40.2324" stroke="#4124F4" stroke-width="2" stroke-linecap="round" stroke-linejoin="round"/>
<path d="M31.5 40.25V45.5H3.5V3.5H31.5V8.75H35V1.75C35 1.28587 34.8156 0.840752 34.4874 0.512563C34.1592 0.184374 33.7141 0 33.25 0H1.75C1.28587 0 0.840752 0.184374 0.512563 0.512563C0.184375 0.840752 0 1.28587 0 1.75V47.25C0 47.7141 0.184375 48.1592 0.512563 48.4874C0.840752 48.8156 1.28587 49 1.75 49H33.25C33.7141 49 34.1592 48.8156 34.4874 48.4874C34.8156 48.1592 35 47.7141 35 47.25V40.25H31.5Z" fill="#4124F4"/>
<path d="M40.2324 24.5L33.2324 31.5" stroke="#4124F4" stroke-width="2" stroke-linecap="round" stroke-linejoin="round"/>
<path d="M40.2324 24.5L33.2324 17.5" stroke="#4124F4" stroke-width="2" stroke-linecap="round" stroke-linejoin="round"/>
<path d="M33.2324 10.6575V7.15747" stroke="#4124F4" stroke-width="2" stroke-linecap="round" stroke-linejoin="round"/>
<path d="M33.2324 42V38.5" stroke="#4124F4" stroke-width="2" stroke-linecap="round" stroke-linejoin="round"/>
</svg>
