<svg width="51" height="51" viewBox="0 0 51 51" fill="none" xmlns="http://www.w3.org/2000/svg">
<path d="M25.5 29.75C31.368 29.75 36.125 24.0416 36.125 17C36.125 9.95837 31.368 4.25 25.5 4.25C19.632 4.25 14.875 9.95837 14.875 17C14.875 24.0416 19.632 29.75 25.5 29.75Z" fill="#918888"/>
<path d="M46.325 40.5874C44.4125 36.7624 40.8 33.5749 36.125 31.6624C34.85 31.2374 33.3625 31.2374 32.3 31.8749C30.175 33.1499 28.05 33.7874 25.5 33.7874C22.95 33.7874 20.825 33.1499 18.7 31.8749C17.6375 31.4499 16.15 31.2374 14.875 31.8749C10.2 33.7874 6.58747 36.9749 4.67497 40.7999C3.18747 43.5624 5.52497 46.7499 8.71247 46.7499H42.2875C45.475 46.7499 47.8125 43.5624 46.325 40.5874Z" fill="#918888"/>
</svg>
